<svg width="48" height="25" viewBox="0 0 48 25" fill="none" xmlns="http://www.w3.org/2000/svg">
<path d="M31.511 19.6151H16.4983C16.3164 19.6151 16.142 19.5429 16.0134 19.4143C15.8848 19.2857 15.8126 19.1114 15.8126 18.9295C15.8126 18.7477 15.8848 18.5733 16.0134 18.4447C16.142 18.3162 16.3164 18.2439 16.4983 18.2439H31.511C31.6928 18.2439 31.8673 18.3162 31.9959 18.4447C32.1245 18.5733 32.1967 18.7477 32.1967 18.9295C32.1967 19.1114 32.1245 19.2857 31.9959 19.4143C31.8673 19.5429 31.6928 19.6151 31.511 19.6151Z" fill="#888888"/>
<path d="M45.9188 19.6151H40.721C40.5391 19.6151 40.3647 19.5429 40.2361 19.4143C40.1075 19.2857 40.0353 19.1114 40.0353 18.9295C40.0353 18.7477 40.1075 18.5733 40.2361 18.4447C40.3647 18.3162 40.5391 18.2439 40.721 18.2439H45.9188C46.107 18.2438 46.2874 18.1689 46.4205 18.0359C46.5535 17.9029 46.6284 17.7225 46.6285 17.5343V14.5863C46.6276 13.8033 46.3685 13.0424 45.8914 12.4214C45.4143 11.8005 44.7457 11.3541 43.9892 11.1515L35.3723 8.8664C35.2472 8.83316 35.134 8.76518 35.0459 8.67033C34.9862 8.60588 29.0204 2.22164 25.5383 1.40305C25.4401 1.37981 25.3394 1.36921 25.2386 1.37151L11.4356 1.37151C10.7205 1.37288 10.0339 1.65217 9.52102 2.15034L2.10143 9.45739C1.84765 9.70332 1.65123 10.0022 1.52619 10.3327C1.40114 10.6632 1.35054 11.0172 1.37799 11.3695L1.96223 17.6002C1.97818 17.7763 2.05956 17.94 2.19031 18.059C2.32106 18.1781 2.49169 18.2438 2.66853 18.2432H7.27457C7.45644 18.2432 7.63085 18.3155 7.75945 18.4441C7.88805 18.5726 7.9603 18.747 7.9603 18.9288C7.9603 19.1107 7.88805 19.2851 7.75945 19.4136C7.63085 19.5422 7.45644 19.6144 7.27457 19.6144H2.66922C2.15036 19.6163 1.64966 19.4236 1.26609 19.0742C0.882518 18.7249 0.643983 18.2444 0.597629 17.7277L0.012702 11.4888C-0.0328895 10.9348 0.0445946 10.3776 0.239607 9.857C0.434619 9.33643 0.742336 8.86542 1.14073 8.47767L8.55963 1.17269C9.32961 0.423301 10.361 0.00285187 11.4356 0.00032407L25.2393 0.00032407C25.4493 -0.00305338 25.659 0.0199805 25.8633 0.0688836C29.4682 0.916276 34.9554 6.57653 35.914 7.58914L44.3423 9.82212C45.391 10.1034 46.3176 10.7225 46.9788 11.5835C47.64 12.4445 47.9989 13.4994 48 14.5849V17.533C47.9998 18.0849 47.7805 18.6142 47.3903 19.0046C47.0001 19.395 46.4708 19.6146 45.9188 19.6151Z" fill="#888888"/>
<path d="M35.5485 8.88902L2.39904 8.88902C2.21717 8.88902 2.04276 8.81679 1.91416 8.68821C1.78556 8.55964 1.71331 8.38526 1.71331 8.20343C1.71331 8.0216 1.78556 7.84721 1.91416 7.71864C2.04276 7.59007 2.21717 7.51783 2.39904 7.51783L35.5485 7.51783C35.7304 7.51783 35.9048 7.59007 36.0334 7.71864C36.162 7.84721 36.2343 8.0216 36.2343 8.20343C36.2343 8.38526 36.162 8.55964 36.0334 8.68821C35.9048 8.81679 35.7304 8.88902 35.5485 8.88902Z" fill="#888888"/>
<path d="M36.1143 24.2223C35.0673 24.2223 34.0438 23.9119 33.1732 23.3303C32.3027 22.7488 31.6242 21.9222 31.2235 20.9551C30.8228 19.988 30.7179 18.9239 30.9221 17.8972C31.1263 16.8705 31.6304 15.9274 32.3707 15.1872C33.111 14.447 34.0542 13.9428 35.0811 13.7385C36.1079 13.5342 37.1723 13.6389 38.1397 14.0394C39.107 14.4399 39.9338 15.1182 40.5156 15.9885C41.0974 16.8588 41.408 17.8821 41.4081 18.9288C41.4066 20.3322 40.8485 21.6776 39.856 22.67C38.8636 23.6624 37.5179 24.2207 36.1143 24.2223ZM36.1143 15.0072C35.3385 15.0072 34.5801 15.2372 33.9351 15.6682C33.2901 16.0991 32.7873 16.7115 32.4905 17.4281C32.1936 18.1447 32.1159 18.9332 32.2673 19.6939C32.4186 20.4546 32.7922 21.1534 33.3407 21.7018C33.8893 22.2503 34.5882 22.6238 35.3491 22.7751C36.1099 22.9264 36.8986 22.8487 37.6153 22.5519C38.332 22.2551 38.9446 21.7525 39.3756 21.1075C39.8066 20.4626 40.0366 19.7045 40.0366 18.9288C40.0355 17.8891 39.622 16.8923 38.8866 16.1571C38.1512 15.4219 37.1542 15.0083 36.1143 15.0072Z" fill="#888888"/>
<path d="M36.1143 21.4107C35.6233 21.4107 35.1434 21.2651 34.7352 20.9924C34.3269 20.7197 34.0088 20.3321 33.8209 19.8786C33.633 19.4251 33.5838 18.9261 33.6796 18.4447C33.7754 17.9632 34.0118 17.521 34.359 17.1739C34.7062 16.8268 35.1485 16.5904 35.63 16.4947C36.1115 16.3989 36.6106 16.4481 37.0642 16.6359C37.5178 16.8238 37.9055 17.1419 38.1783 17.55C38.451 17.9581 38.5966 18.438 38.5966 18.9288C38.5959 19.5868 38.3341 20.2177 37.8687 20.683C37.4034 21.1482 36.7724 21.41 36.1143 21.4107ZM36.1143 17.8182C35.8946 17.8182 35.6798 17.8833 35.4971 18.0054C35.3144 18.1274 35.172 18.3009 35.0879 18.5038C35.0039 18.7068 34.9819 18.9301 35.0247 19.1455C35.0676 19.361 35.1734 19.5589 35.3288 19.7142C35.4841 19.8695 35.6821 19.9753 35.8975 20.0182C36.113 20.061 36.3364 20.039 36.5394 19.955C36.7424 19.8709 36.9159 19.7285 37.0379 19.5459C37.16 19.3632 37.2252 19.1485 37.2252 18.9288C37.2246 18.6345 37.1074 18.3524 36.8991 18.1443C36.6909 17.9363 36.4087 17.8192 36.1143 17.8189V17.8182Z" fill="#888888"/>
<path d="M11.8847 21.4107C11.3938 21.4107 10.9138 21.2651 10.5056 20.9924C10.0974 20.7197 9.77922 20.3321 9.59134 19.8786C9.40346 19.4251 9.3543 18.9261 9.45008 18.4447C9.54586 17.9632 9.78228 17.521 10.1294 17.1739C10.4766 16.8268 10.9189 16.5904 11.4004 16.4947C11.882 16.3989 12.3811 16.4481 12.8347 16.6359C13.2883 16.8238 13.6759 17.1419 13.9487 17.55C14.2215 17.9581 14.3671 18.438 14.3671 18.9288C14.3663 19.5868 14.1046 20.2177 13.6392 20.683C13.1738 21.1482 12.5429 21.41 11.8847 21.4107ZM11.8847 17.8182C11.665 17.8182 11.4502 17.8833 11.2676 18.0054C11.0849 18.1274 10.9425 18.3009 10.8584 18.5038C10.7743 18.7068 10.7523 18.9301 10.7952 19.1455C10.8381 19.361 10.9439 19.5589 11.0992 19.7142C11.2546 19.8695 11.4525 19.9753 11.668 20.0182C11.8835 20.061 12.1069 20.039 12.3098 19.955C12.5128 19.8709 12.6863 19.7285 12.8084 19.5459C12.9305 19.3632 12.9956 19.1485 12.9956 18.9288C12.9951 18.6345 12.8778 18.3524 12.6696 18.1443C12.4614 17.9363 12.1791 17.8192 11.8847 17.8189V17.8182Z" fill="#888888"/>
<path d="M11.8847 24.2223C10.8377 24.2223 9.81426 23.9119 8.94371 23.3303C8.07316 22.7488 7.39463 21.9222 6.99393 20.9551C6.59324 19.988 6.48836 18.9239 6.69257 17.8972C6.89678 16.8705 7.4009 15.9274 8.14118 15.1872C8.88147 14.447 9.82467 13.9428 10.8515 13.7385C11.8784 13.5342 12.9428 13.6389 13.9101 14.0394C14.8774 14.4399 15.7043 15.1182 16.286 15.9885C16.8678 16.8588 17.1784 17.8821 17.1786 18.9288C17.1771 20.3322 16.6189 21.6776 15.6265 22.67C14.634 23.6624 13.2884 24.2207 11.8847 24.2223ZM11.8847 15.0072C11.109 15.0072 10.3506 15.2372 9.70557 15.6682C9.06054 16.0991 8.55781 16.7115 8.26093 17.4281C7.96406 18.1447 7.88638 18.9332 8.03772 19.6939C8.18907 20.4546 8.56264 21.1534 9.11119 21.7018C9.65975 22.2503 10.3586 22.6238 11.1195 22.7751C11.8804 22.9264 12.669 22.8487 13.3858 22.5519C14.1025 22.2551 14.7151 21.7525 15.1461 21.1075C15.5771 20.4626 15.8071 19.7045 15.8071 18.9288C15.806 17.8891 15.3924 16.8923 14.6571 16.1571C13.9217 15.4219 12.9247 15.0083 11.8847 15.0072Z" fill="#888888"/>
<path d="M18.9731 8.88903C18.7912 8.88903 18.6168 8.8168 18.4882 8.68822C18.3596 8.55965 18.2874 8.38527 18.2874 8.20344V0.685919C18.2874 0.504088 18.3596 0.329706 18.4882 0.201133C18.6168 0.0725592 18.7912 0.000326589 18.9731 0.000326589C19.155 0.000326589 19.3294 0.0725592 19.458 0.201133C19.5866 0.329706 19.6588 0.504088 19.6588 0.685919V8.20344C19.6588 8.38527 19.5866 8.55965 19.458 8.68822C19.3294 8.8168 19.155 8.88903 18.9731 8.88903Z" fill="#888888"/>
<path d="M24.6852 14.1681H22.628C22.4462 14.1681 22.2718 14.0959 22.1432 13.9673C22.0146 13.8387 21.9423 13.6643 21.9423 13.4825C21.9423 13.3007 22.0146 13.1263 22.1432 12.9977C22.2718 12.8691 22.4462 12.7969 22.628 12.7969H24.6852C24.8671 12.7969 25.0415 12.8691 25.1701 12.9977C25.2987 13.1263 25.371 13.3007 25.371 13.4825C25.371 13.6643 25.2987 13.8387 25.1701 13.9673C25.0415 14.0959 24.8671 14.1681 24.6852 14.1681Z" fill="#888888"/>
</svg>
