<?xml version="1.0"?>
<svg width="48" height="25" xmlns="http://www.w3.org/2000/svg" xmlns:svg="http://www.w3.org/2000/svg">
 <g class="layer">
  <title>Layer 1</title>
  <path d="m31.51,19.62l-15.01,0c-0.18,0 -0.36,-0.08 -0.49,-0.21c-0.13,-0.12 -0.2,-0.3 -0.2,-0.48c0,-0.18 0.07,-0.36 0.2,-0.49c0.13,-0.12 0.31,-0.2 0.49,-0.2l15.01,0c0.18,0 0.36,0.08 0.49,0.2c0.12,0.13 0.2,0.31 0.2,0.49c0,0.18 -0.08,0.36 -0.2,0.48c-0.13,0.13 -0.31,0.21 -0.49,0.21z" fill="#E12126" id="svg_1"/>
  <path d="m45.92,19.62l-5.2,0c-0.18,0 -0.36,-0.08 -0.48,-0.21c-0.13,-0.12 -0.2,-0.3 -0.2,-0.48c0,-0.18 0.07,-0.36 0.2,-0.49c0.12,-0.12 0.3,-0.2 0.48,-0.2l5.2,0c0.19,0 0.37,-0.07 0.5,-0.2c0.13,-0.14 0.21,-0.32 0.21,-0.51l0,-2.94c0,-0.79 -0.26,-1.55 -0.74,-2.17c-0.48,-0.62 -1.14,-1.07 -1.9,-1.27l-8.62,-2.28c-0.12,-0.04 -0.24,-0.1 -0.32,-0.2c-0.06,-0.06 -6.03,-6.45 -9.51,-7.27c-0.1,-0.02 -0.2,-0.03 -0.3,-0.03l-13.8,0c-0.72,0 -1.41,0.28 -1.92,0.78l-7.42,7.31c-0.25,0.24 -0.45,0.54 -0.57,0.87c-0.13,0.33 -0.18,0.69 -0.15,1.04l0.58,6.23c0.02,0.18 0.1,0.34 0.23,0.46c0.13,0.12 0.3,0.18 0.48,0.18l4.6,0c0.19,0 0.36,0.08 0.49,0.2c0.13,0.13 0.2,0.31 0.2,0.49c0,0.18 -0.07,0.36 -0.2,0.48c-0.13,0.13 -0.3,0.2 -0.49,0.2l-4.6,0c-0.52,0.01 -1.02,-0.19 -1.4,-0.54c-0.39,-0.35 -0.63,-0.83 -0.67,-1.34l-0.59,-6.24c-0.04,-0.56 0.03,-1.11 0.23,-1.63c0.19,-0.52 0.5,-0.99 0.9,-1.38l7.42,-7.31c0.77,-0.75 1.8,-1.17 2.88,-1.17l13.8,0c0.21,0 0.42,0.02 0.62,0.07c3.61,0.85 9.1,6.51 10.05,7.52l8.43,2.23c1.05,0.28 1.98,0.9 2.64,1.76c0.66,0.86 1.02,1.92 1.02,3l0,2.95c0,0.55 -0.22,1.08 -0.61,1.47c-0.39,0.39 -0.92,0.61 -1.47,0.62z" fill="#E12126" id="svg_2"/>
  <path d="m35.55,8.89l-33.15,0c-0.18,0 -0.36,-0.07 -0.49,-0.2c-0.12,-0.13 -0.2,-0.3 -0.2,-0.49c0,-0.18 0.08,-0.35 0.2,-0.48c0.13,-0.13 0.31,-0.2 0.49,-0.2l33.15,0c0.18,0 0.35,0.07 0.48,0.2c0.13,0.13 0.2,0.3 0.2,0.48c0,0.19 -0.07,0.36 -0.2,0.49c-0.13,0.13 -0.3,0.2 -0.48,0.2z" fill="#E12126" id="svg_3"/>
  <path d="m36.11,24.22c-1.04,0 -2.07,-0.31 -2.94,-0.89c-0.87,-0.58 -1.55,-1.41 -1.95,-2.37c-0.4,-0.97 -0.5,-2.04 -0.3,-3.06c0.21,-1.03 0.71,-1.97 1.45,-2.71c0.74,-0.74 1.68,-1.25 2.71,-1.45c1.03,-0.21 2.09,-0.1 3.06,0.3c0.97,0.4 1.79,1.08 2.38,1.95c0.58,0.87 0.89,1.89 0.89,2.94c0,1.4 -0.56,2.75 -1.55,3.74c-1,0.99 -2.34,1.55 -3.75,1.55zm0,-9.21c-0.77,0 -1.53,0.23 -2.17,0.66c-0.65,0.43 -1.15,1.04 -1.45,1.76c-0.3,0.71 -0.37,1.5 -0.22,2.26c0.15,0.76 0.52,1.46 1.07,2.01c0.55,0.55 1.25,0.92 2.01,1.08c0.76,0.15 1.55,0.07 2.27,-0.23c0.71,-0.29 1.32,-0.8 1.76,-1.44c0.43,-0.65 0.66,-1.41 0.66,-2.18c0,-1.04 -0.42,-2.04 -1.15,-2.77c-0.74,-0.74 -1.74,-1.15 -2.78,-1.15z" fill="#E12126" id="svg_4"/>
  <path d="m36.11,21.41c-0.49,0 -0.97,-0.14 -1.37,-0.42c-0.41,-0.27 -0.73,-0.66 -0.92,-1.11c-0.19,-0.45 -0.24,-0.95 -0.14,-1.44c0.1,-0.48 0.33,-0.92 0.68,-1.27c0.35,-0.34 0.79,-0.58 1.27,-0.68c0.48,-0.09 0.98,-0.04 1.43,0.15c0.46,0.18 0.85,0.5 1.12,0.91c0.27,0.41 0.42,0.89 0.42,1.38c0,0.66 -0.27,1.29 -0.73,1.75c-0.47,0.47 -1.1,0.73 -1.76,0.73zm0,-3.59c-0.22,0 -0.43,0.06 -0.61,0.19c-0.19,0.12 -0.33,0.29 -0.41,0.49c-0.09,0.21 -0.11,0.43 -0.07,0.65c0.05,0.21 0.15,0.41 0.31,0.56c0.15,0.16 0.35,0.27 0.57,0.31c0.21,0.04 0.44,0.02 0.64,-0.07c0.2,-0.08 0.38,-0.22 0.5,-0.4c0.12,-0.19 0.19,-0.4 0.19,-0.62c-0.01,-0.3 -0.12,-0.58 -0.33,-0.79c-0.21,-0.2 -0.49,-0.32 -0.79,-0.32l0,0z" fill="#E12126" id="svg_5"/>
  <path d="m11.88,21.41c-0.49,0 -0.97,-0.14 -1.37,-0.42c-0.41,-0.27 -0.73,-0.66 -0.92,-1.11c-0.19,-0.45 -0.24,-0.95 -0.14,-1.44c0.1,-0.48 0.33,-0.92 0.68,-1.27c0.35,-0.34 0.79,-0.58 1.27,-0.68c0.48,-0.09 0.98,-0.04 1.43,0.15c0.46,0.18 0.85,0.5 1.12,0.91c0.27,0.41 0.42,0.89 0.42,1.38c0,0.66 -0.27,1.29 -0.73,1.75c-0.47,0.47 -1.1,0.73 -1.76,0.73zm0,-3.59c-0.22,0 -0.43,0.06 -0.61,0.19c-0.19,0.12 -0.33,0.29 -0.41,0.49c-0.09,0.21 -0.11,0.43 -0.06,0.65c0.04,0.21 0.14,0.41 0.3,0.56c0.15,0.16 0.35,0.27 0.57,0.31c0.21,0.04 0.44,0.02 0.64,-0.07c0.2,-0.08 0.38,-0.22 0.5,-0.4c0.12,-0.19 0.19,-0.4 0.19,-0.62c0,-0.3 -0.12,-0.58 -0.33,-0.79c-0.21,-0.2 -0.49,-0.32 -0.79,-0.32l0,0z" fill="#E12126" id="svg_6"/>
  <path d="m11.88,24.22c-1.04,0 -2.07,-0.31 -2.94,-0.89c-0.87,-0.58 -1.55,-1.41 -1.95,-2.37c-0.4,-0.97 -0.5,-2.04 -0.3,-3.06c0.21,-1.03 0.71,-1.97 1.45,-2.71c0.74,-0.74 1.68,-1.25 2.71,-1.45c1.03,-0.21 2.09,-0.1 3.06,0.3c0.97,0.4 1.79,1.08 2.38,1.95c0.58,0.87 0.89,1.89 0.89,2.94c0,1.4 -0.56,2.75 -1.55,3.74c-1,0.99 -2.34,1.55 -3.75,1.55zm0,-9.21c-0.77,0 -1.53,0.23 -2.17,0.66c-0.65,0.43 -1.15,1.04 -1.45,1.76c-0.3,0.71 -0.37,1.5 -0.22,2.26c0.15,0.76 0.52,1.46 1.07,2.01c0.55,0.55 1.25,0.92 2.01,1.08c0.76,0.15 1.55,0.07 2.27,-0.23c0.71,-0.29 1.33,-0.8 1.76,-1.44c0.43,-0.65 0.66,-1.41 0.66,-2.18c0,-1.04 -0.42,-2.04 -1.15,-2.77c-0.74,-0.74 -1.74,-1.15 -2.78,-1.15z" fill="#E12126" id="svg_7"/>
  <path d="m18.97,8.89c-0.18,0 -0.35,-0.07 -0.48,-0.2c-0.13,-0.13 -0.2,-0.3 -0.2,-0.49l0,-7.51c0,-0.19 0.07,-0.36 0.2,-0.49c0.13,-0.13 0.3,-0.2 0.48,-0.2c0.19,0 0.36,0.07 0.49,0.2c0.13,0.13 0.2,0.3 0.2,0.49l0,7.51c0,0.19 -0.07,0.36 -0.2,0.49c-0.13,0.13 -0.3,0.2 -0.49,0.2z" fill="#E12126" id="svg_8"/>
  <path d="m24.69,14.17l-2.06,0c-0.18,0 -0.36,-0.07 -0.49,-0.2c-0.13,-0.13 -0.2,-0.31 -0.2,-0.49c0,-0.18 0.07,-0.35 0.2,-0.48c0.13,-0.13 0.31,-0.2 0.49,-0.2l2.06,0c0.18,0 0.35,0.07 0.48,0.2c0.13,0.13 0.2,0.3 0.2,0.48c0,0.18 -0.07,0.36 -0.2,0.49c-0.13,0.13 -0.3,0.2 -0.48,0.2z" fill="#E12126" id="svg_9"/>
 </g>
</svg>