<?xml version="1.0"?>
<svg width="48" height="48" xmlns="http://www.w3.org/2000/svg" xmlns:svg="http://www.w3.org/2000/svg">
 <g class="layer">
  <title>Layer 1</title>
  <path d="m42.46,30.42c-0.01,0 -0.03,-0.01 -0.04,-0.02c-0.02,-0.01 -0.02,-0.03 -0.02,-0.05l0,-0.2c0,-0.02 0,-0.04 0.02,-0.05c0.01,-0.01 0.03,-0.02 0.04,-0.02c0.02,0 0.04,0.01 0.05,0.02c0.01,0.01 0.02,0.03 0.02,0.05l0,0.2c0,0.02 -0.01,0.04 -0.02,0.05c-0.01,0.01 -0.03,0.02 -0.05,0.02z" fill="#E12126" id="svg_1"/>
  <path d="m17.39,31.26l-3.52,0c-0.16,0 -0.31,-0.06 -0.43,-0.16c-0.12,-0.1 -0.21,-0.24 -0.24,-0.39l-0.58,-2.89c-1.23,-0.3 -2.4,-0.79 -3.48,-1.45l-2.45,1.64c-0.13,0.09 -0.29,0.13 -0.45,0.11c-0.16,-0.01 -0.31,-0.08 -0.42,-0.2l-2.48,-2.49c-0.12,-0.11 -0.19,-0.25 -0.2,-0.41c-0.02,-0.16 0.02,-0.32 0.11,-0.45l1.64,-2.45c-0.66,-1.08 -1.15,-2.26 -1.45,-3.49l-2.89,-0.57c-0.16,-0.03 -0.3,-0.12 -0.4,-0.24c-0.1,-0.12 -0.15,-0.28 -0.15,-0.43l0,-3.52c0,-0.16 0.05,-0.31 0.15,-0.43c0.1,-0.13 0.24,-0.21 0.4,-0.24l2.89,-0.58c0.3,-1.23 0.79,-2.4 1.44,-3.48l-1.63,-2.45c-0.09,-0.13 -0.13,-0.29 -0.11,-0.45c0.01,-0.16 0.08,-0.31 0.2,-0.42l2.48,-2.49c0.12,-0.11 0.26,-0.18 0.42,-0.19c0.16,-0.02 0.32,0.02 0.45,0.11l2.45,1.64c1.08,-0.66 2.25,-1.15 3.48,-1.45l0.58,-2.89c0.03,-0.16 0.12,-0.3 0.24,-0.4c0.12,-0.1 0.27,-0.15 0.43,-0.15l3.52,0c0.16,0 0.31,0.05 0.43,0.15c0.13,0.1 0.21,0.24 0.24,0.4l0.58,2.89c1.23,0.3 2.4,0.78 3.48,1.44l2.45,-1.63c0.14,-0.09 0.29,-0.13 0.45,-0.12c0.16,0.02 0.31,0.09 0.42,0.2l2.49,2.49c0.11,0.11 0.18,0.26 0.2,0.42c0.01,0.15 -0.03,0.31 -0.12,0.45l-1.63,2.45c0.66,1.07 1.14,2.25 1.44,3.48l2.89,0.58c0.16,0.03 0.3,0.11 0.4,0.23c0.1,0.13 0.15,0.28 0.15,0.44l0,3.52c0,0.15 -0.05,0.31 -0.15,0.43c-0.1,0.12 -0.24,0.21 -0.4,0.24l-2.89,0.57c-0.3,1.23 -0.78,2.41 -1.44,3.49l1.63,2.45c0.09,0.13 0.13,0.29 0.12,0.45c-0.02,0.16 -0.09,0.3 -0.2,0.41l-2.49,2.49c-0.11,0.11 -0.26,0.18 -0.42,0.2c-0.16,0.02 -0.31,-0.02 -0.45,-0.11l-2.45,-1.64c-1.08,0.66 -2.25,1.15 -3.48,1.45l-0.58,2.89c-0.03,0.15 -0.11,0.29 -0.24,0.39c-0.12,0.1 -0.27,0.16 -0.43,0.16zm-2.95,-1.38l2.39,0l0.55,-2.77c0.03,-0.13 0.09,-0.25 0.19,-0.35c0.09,-0.1 0.21,-0.16 0.35,-0.19c1.37,-0.28 2.67,-0.82 3.84,-1.59c0.11,-0.07 0.24,-0.11 0.38,-0.11c0.13,0 0.26,0.04 0.38,0.11l2.35,1.57l1.69,-1.69l-1.57,-2.35c-0.08,-0.12 -0.12,-0.25 -0.12,-0.38c0,-0.14 0.04,-0.27 0.12,-0.38c0.77,-1.17 1.31,-2.47 1.59,-3.84c0.03,-0.13 0.09,-0.25 0.19,-0.35c0.09,-0.09 0.22,-0.16 0.35,-0.19l2.77,-0.55l0,-2.39l-2.77,-0.55c-0.13,-0.03 -0.26,-0.09 -0.35,-0.19c-0.1,-0.09 -0.16,-0.21 -0.19,-0.35c-0.28,-1.37 -0.82,-2.67 -1.59,-3.84c-0.08,-0.11 -0.12,-0.24 -0.12,-0.37c0,-0.14 0.04,-0.27 0.12,-0.38l1.57,-2.36l-1.69,-1.69l-2.36,1.57c-0.11,0.08 -0.24,0.12 -0.38,0.12c-0.13,0 -0.26,-0.04 -0.38,-0.12c-1.16,-0.77 -2.47,-1.31 -3.84,-1.59c-0.13,-0.03 -0.25,-0.09 -0.34,-0.19c-0.1,-0.09 -0.16,-0.21 -0.19,-0.35l-0.55,-2.77l-2.39,0l-0.56,2.78c-0.02,0.13 -0.09,0.25 -0.18,0.35c-0.1,0.09 -0.22,0.16 -0.35,0.18c-1.37,0.28 -2.68,0.82 -3.84,1.6c-0.12,0.07 -0.25,0.11 -0.38,0.11c-0.14,0 -0.27,-0.04 -0.38,-0.11l-2.36,-1.58l-1.69,1.69l1.58,2.36c0.07,0.11 0.11,0.24 0.11,0.38c0,0.13 -0.04,0.26 -0.11,0.38c-0.78,1.16 -1.32,2.47 -1.6,3.84c-0.02,0.13 -0.09,0.25 -0.19,0.34c-0.09,0.1 -0.21,0.16 -0.34,0.19l-2.78,0.55l0,2.39l2.78,0.56c0.13,0.02 0.25,0.09 0.35,0.18c0.09,0.1 0.16,0.22 0.18,0.35c0.28,1.37 0.82,2.68 1.6,3.84c0.07,0.11 0.11,0.25 0.11,0.38c0,0.14 -0.04,0.27 -0.11,0.38l-1.58,2.35l1.69,1.69l2.36,-1.57c0.11,-0.07 0.24,-0.11 0.38,-0.11c0.13,0 0.26,0.04 0.38,0.11c1.16,0.77 2.47,1.31 3.84,1.59c0.13,0.03 0.25,0.1 0.35,0.19c0.09,0.1 0.16,0.22 0.18,0.35l0.56,2.77z" fill="#E12126" id="svg_2"/>
  <path d="m15.63,23.35c-1.52,0 -3.02,-0.46 -4.29,-1.3c-1.27,-0.85 -2.26,-2.06 -2.84,-3.47c-0.58,-1.41 -0.74,-2.96 -0.44,-4.46c0.3,-1.49 1.03,-2.87 2.11,-3.95c1.08,-1.08 2.46,-1.81 3.96,-2.11c1.49,-0.3 3.05,-0.15 4.46,0.44c1.41,0.58 2.61,1.57 3.46,2.84c0.85,1.27 1.3,2.76 1.3,4.29c0,2.05 -0.82,4.01 -2.26,5.45c-1.45,1.45 -3.41,2.26 -5.46,2.27zm0,-14.07c-1.25,0 -2.48,0.37 -3.52,1.07c-1.05,0.7 -1.86,1.69 -2.34,2.85c-0.48,1.16 -0.61,2.43 -0.37,3.66c0.25,1.23 0.85,2.36 1.74,3.25c0.89,0.89 2.02,1.5 3.25,1.74c1.23,0.25 2.51,0.12 3.67,-0.36c1.16,-0.48 2.15,-1.29 2.85,-2.33c0.69,-1.05 1.07,-2.27 1.07,-3.53c0,-1.68 -0.67,-3.29 -1.86,-4.48c-1.19,-1.2 -2.8,-1.87 -4.49,-1.87l0,0z" fill="#E12126" id="svg_3"/>
  <path d="m38.27,47.99c-0.11,0 -0.23,-0.03 -0.33,-0.09c-0.1,-0.05 -0.19,-0.13 -0.25,-0.23l-1.19,-1.92c-0.96,0.11 -1.92,0.07 -2.87,-0.1l-1.32,1.84c-0.09,0.13 -0.22,0.22 -0.38,0.26c-0.15,0.04 -0.31,0.03 -0.46,-0.03l-2.55,-1.16c-0.14,-0.07 -0.26,-0.18 -0.33,-0.32c-0.07,-0.14 -0.09,-0.31 -0.05,-0.46l0.51,-2.2c-0.75,-0.6 -1.41,-1.31 -1.96,-2.1l-2.23,0.37c-0.15,0.03 -0.32,0 -0.45,-0.08c-0.14,-0.08 -0.25,-0.21 -0.3,-0.35l-0.99,-2.63c-0.05,-0.15 -0.06,-0.31 -0.01,-0.46c0.06,-0.15 0.16,-0.28 0.29,-0.36l1.92,-1.19c-0.11,-0.96 -0.08,-1.92 0.09,-2.87l-1.83,-1.32c-0.13,-0.09 -0.22,-0.22 -0.26,-0.38c-0.04,-0.15 -0.03,-0.31 0.03,-0.46l1.16,-2.55c0.07,-0.14 0.18,-0.26 0.32,-0.33c0.15,-0.07 0.31,-0.09 0.46,-0.05l2.2,0.51c0.6,-0.75 1.31,-1.41 2.1,-1.96l-0.37,-2.23c-0.02,-0.16 0,-0.32 0.08,-0.45c0.08,-0.14 0.21,-0.25 0.36,-0.3l2.62,-0.99c0.15,-0.05 0.31,-0.06 0.46,-0.01c0.15,0.06 0.28,0.16 0.36,0.29l1.19,1.92c0.96,-0.11 1.93,-0.08 2.87,0.09l1.32,-1.83c0.09,-0.13 0.22,-0.22 0.38,-0.26c0.15,-0.05 0.31,-0.03 0.46,0.03l2.55,1.16c0.14,0.07 0.26,0.18 0.33,0.32c0.07,0.14 0.09,0.3 0.05,0.46l-0.51,2.2c0.75,0.6 1.42,1.3 1.96,2.09l2.23,-0.37c0.16,-0.02 0.32,0.01 0.46,0.09c0.13,0.08 0.24,0.2 0.3,0.35l0.98,2.62c0.06,0.15 0.06,0.31 0.01,0.46c-0.05,0.15 -0.15,0.28 -0.29,0.37l-1.92,1.19c0.11,0.95 0.08,1.92 -0.09,2.87l1.83,1.31c0.13,0.1 0.23,0.23 0.27,0.38c0.04,0.16 0.02,0.32 -0.04,0.46l-1.15,2.56c-0.07,0.14 -0.18,0.26 -0.33,0.33c-0.14,0.07 -0.3,0.09 -0.45,0.05l-2.2,-0.51c-0.6,0.75 -1.31,1.41 -2.1,1.96l0.37,2.23c0.02,0.15 -0.01,0.31 -0.09,0.45c-0.08,0.14 -0.2,0.25 -0.35,0.3l-2.62,0.99c-0.08,0.03 -0.16,0.04 -0.25,0.04zm-1.42,-3.67c0.11,0 0.23,0.03 0.33,0.09c0.1,0.06 0.19,0.14 0.25,0.24l1.13,1.81l1.57,-0.59l-0.35,-2.11c-0.02,-0.13 0,-0.27 0.05,-0.39c0.06,-0.12 0.15,-0.23 0.26,-0.3c0.93,-0.58 1.74,-1.34 2.38,-2.22c0.08,-0.11 0.19,-0.2 0.32,-0.24c0.12,-0.05 0.26,-0.06 0.39,-0.03l2.09,0.49l0.69,-1.53l-1.74,-1.25c-0.11,-0.08 -0.19,-0.19 -0.24,-0.31c-0.05,-0.13 -0.06,-0.26 -0.03,-0.4c0.24,-1.06 0.28,-2.17 0.11,-3.25c-0.03,-0.13 -0.01,-0.27 0.05,-0.39c0.05,-0.13 0.15,-0.23 0.26,-0.3l1.82,-1.13l-0.59,-1.57l-2.11,0.35c-0.14,0.02 -0.27,0 -0.4,-0.05c-0.12,-0.06 -0.22,-0.15 -0.3,-0.26c-0.58,-0.93 -1.33,-1.74 -2.22,-2.38c-0.11,-0.08 -0.19,-0.19 -0.24,-0.32c-0.05,-0.12 -0.06,-0.26 -0.03,-0.39l0.49,-2.09l-1.53,-0.69l-1.24,1.74c-0.08,0.11 -0.19,0.19 -0.32,0.24c-0.12,0.05 -0.26,0.06 -0.39,0.03c-1.07,-0.25 -2.18,-0.28 -3.26,-0.11c-0.13,0.02 -0.27,0.01 -0.39,-0.05c-0.12,-0.06 -0.23,-0.15 -0.3,-0.26l-1.13,-1.82l-1.57,0.59l0.35,2.11c0.02,0.14 0,0.27 -0.05,0.4c-0.06,0.12 -0.15,0.22 -0.27,0.3c-0.92,0.58 -1.73,1.33 -2.37,2.22c-0.08,0.11 -0.19,0.19 -0.32,0.24c-0.12,0.05 -0.26,0.05 -0.39,0.02l-2.09,-0.48l-0.69,1.52l1.74,1.25c0.11,0.08 0.19,0.19 0.24,0.32c0.05,0.12 0.06,0.26 0.03,0.39c-0.24,1.07 -0.28,2.17 -0.11,3.26c0.03,0.13 0.01,0.27 -0.05,0.39c-0.06,0.12 -0.15,0.23 -0.26,0.3l-1.82,1.13l0.59,1.57l2.11,-0.35c0.14,-0.03 0.27,-0.01 0.4,0.05c0.12,0.05 0.22,0.14 0.3,0.26c0.58,0.93 1.33,1.73 2.22,2.38c0.11,0.08 0.19,0.19 0.24,0.31c0.05,0.13 0.06,0.27 0.02,0.4l-0.48,2.08l1.53,0.69l1.24,-1.73c0.08,-0.11 0.19,-0.2 0.32,-0.25c0.12,-0.04 0.26,-0.05 0.39,-0.02c1.07,0.24 2.18,0.28 3.26,0.1c0.03,0 0.07,-0.01 0.11,-0.01z" fill="#E12126" id="svg_4"/>
  <path d="m35.39,41.96c-1.36,0 -2.68,-0.44 -3.77,-1.25c-1.08,-0.81 -1.88,-1.96 -2.26,-3.26c-0.39,-1.3 -0.34,-2.7 0.13,-3.97c0.48,-1.27 1.35,-2.36 2.49,-3.09c1.14,-0.74 2.49,-1.09 3.85,-0.99c1.35,0.09 2.64,0.62 3.67,1.51c1.03,0.89 1.74,2.08 2.03,3.41c0.3,1.33 0.15,2.71 -0.41,3.95c-0.5,1.1 -1.31,2.03 -2.32,2.69c-1.02,0.65 -2.2,1 -3.41,1zm0.01,-11.2c-0.88,0 -1.75,0.23 -2.51,0.68c-0.76,0.45 -1.38,1.1 -1.81,1.88c-0.42,0.77 -0.63,1.65 -0.6,2.53c0.03,0.88 0.3,1.74 0.78,2.48c0.48,0.75 1.15,1.35 1.94,1.74c0.79,0.4 1.67,0.57 2.55,0.5c0.89,-0.06 1.73,-0.36 2.46,-0.87c0.72,-0.5 1.3,-1.19 1.66,-2c0.34,-0.75 0.49,-1.57 0.43,-2.39c-0.06,-0.82 -0.33,-1.61 -0.77,-2.3c-0.45,-0.69 -1.06,-1.26 -1.78,-1.65c-0.72,-0.39 -1.53,-0.6 -2.35,-0.6z" fill="#E12126" id="svg_5"/>
 </g>
</svg>