<svg width="48" height="48" viewBox="0 0 48 48" fill="none" xmlns="http://www.w3.org/2000/svg">
<path d="M42.4632 30.4216C42.4452 30.4216 42.428 30.4144 42.4152 30.4017C42.4025 30.389 42.3953 30.3717 42.3953 30.3537V30.1483C42.3953 30.1303 42.4025 30.113 42.4152 30.1003C42.428 30.0875 42.4452 30.0804 42.4632 30.0804C42.4812 30.0804 42.4985 30.0875 42.5112 30.1003C42.524 30.113 42.5311 30.1303 42.5311 30.1483V30.3537C42.5311 30.3717 42.524 30.389 42.5112 30.4017C42.4985 30.4144 42.4812 30.4216 42.4632 30.4216Z" fill="#888888"/>
<path d="M17.3897 31.256H13.8727C13.7146 31.2561 13.5614 31.2015 13.4389 31.1015C13.3164 31.0016 13.2323 30.8624 13.2007 30.7076L12.624 27.8179C11.3946 27.5194 10.219 27.0318 9.13919 26.3727L6.68845 28.0098C6.55648 28.098 6.39801 28.1376 6.24008 28.122C6.08215 28.1063 5.93453 28.0364 5.8224 27.9241L3.33531 25.4348C3.22301 25.3227 3.15308 25.1751 3.13745 25.0172C3.12182 24.8593 3.16146 24.7009 3.2496 24.5689L4.88708 22.1187C4.22779 21.0391 3.74015 19.8638 3.4416 18.6346L0.548571 18.058C0.393687 18.0264 0.254483 17.9423 0.154518 17.8198C0.0545531 17.6974 -3.22492e-05 17.5442 1.42942e-08 17.3862V13.8699C-3.22492e-05 13.7118 0.0545531 13.5586 0.154518 13.4362C0.254483 13.3137 0.393687 13.2296 0.548571 13.198L3.43885 12.6214C3.73753 11.3923 4.22516 10.217 4.88434 9.13734L3.2496 6.68709C3.16146 6.55514 3.12182 6.39671 3.13745 6.23882C3.15308 6.08092 3.22301 5.93333 3.33531 5.82121L5.82308 3.33395C5.93522 3.22167 6.08284 3.15176 6.24077 3.13613C6.3987 3.1205 6.55716 3.16013 6.68914 3.24825L9.13988 4.8854C10.2195 4.22667 11.3949 3.73937 12.624 3.4409L13.2007 0.54846C13.2323 0.393607 13.3164 0.254431 13.4389 0.154486C13.5614 0.054542 13.7146 -3.22427e-05 13.8727 1.42913e-08H17.3897C17.5478 -3.22427e-05 17.701 0.054542 17.8235 0.154486C17.9459 0.254431 18.0301 0.393607 18.0617 0.54846L18.6384 3.43816C19.8678 3.73665 21.0434 4.22419 22.1232 4.88335L24.5739 3.2462C24.7059 3.15807 24.8644 3.11845 25.0223 3.13407C25.1802 3.1497 25.3278 3.21961 25.44 3.33189L27.9277 5.81916C28.0401 5.93127 28.11 6.07886 28.1256 6.23676C28.1412 6.39466 28.1016 6.55309 28.0135 6.68504L26.376 9.13528C27.0353 10.2149 27.5229 11.3902 27.8215 12.6194L30.7117 13.1959C30.8666 13.2275 31.0058 13.3117 31.1058 13.4341C31.2058 13.5566 31.2604 13.7098 31.2603 13.8678V17.3862C31.2604 17.5442 31.2058 17.6974 31.1058 17.8198C31.0058 17.9423 30.8666 18.0264 30.7117 18.058L27.8215 18.6346C27.5229 19.8637 27.0352 21.0391 26.376 22.1187L28.0135 24.5689C28.1016 24.7009 28.1412 24.8593 28.1256 25.0172C28.11 25.1751 28.0401 25.3227 27.9277 25.4348L25.44 27.9221C25.3278 28.0344 25.1802 28.1043 25.0223 28.1199C24.8644 28.1355 24.7059 28.0959 24.5739 28.0078L22.1232 26.3706C21.0434 27.0297 19.8678 27.5173 18.6384 27.8158L18.0617 30.7055C18.0305 30.8607 17.9465 31.0004 17.824 31.1007C17.7015 31.2011 17.5481 31.256 17.3897 31.256ZM14.4356 29.8849H16.8274L17.3815 27.1097C17.4079 26.9774 17.4727 26.8559 17.5678 26.7603C17.663 26.6647 17.7842 26.5992 17.9163 26.5722C19.2868 26.2933 20.5906 25.7528 21.7563 24.9803C21.8688 24.9055 22.0008 24.8657 22.1359 24.8657C22.2709 24.8657 22.4029 24.9055 22.5154 24.9803L24.8695 26.553L26.5618 24.861L24.9888 22.5074C24.914 22.395 24.8742 22.263 24.8742 22.1279C24.8742 21.9929 24.914 21.8609 24.9888 21.7485C25.7615 20.583 26.3021 19.2794 26.581 17.9093C26.6081 17.7771 26.6735 17.6559 26.7691 17.5608C26.8648 17.4657 26.9863 17.4009 27.1186 17.3745L29.8944 16.8206V14.4327L27.1186 13.8788C26.9863 13.8524 26.8648 13.7876 26.7691 13.6925C26.6735 13.5973 26.6081 13.4761 26.581 13.344C26.3019 11.9739 25.7613 10.6704 24.9888 9.5048C24.914 9.39236 24.8742 9.26035 24.8742 9.12534C24.8742 8.99033 24.914 8.85832 24.9888 8.74587L26.5618 6.3923L24.8674 4.70167L22.5134 6.27438C22.4008 6.34925 22.2686 6.3892 22.1335 6.3892C21.9983 6.3892 21.8661 6.34925 21.7536 6.27438C20.588 5.50147 19.2841 4.96072 17.9136 4.68179C17.7814 4.65473 17.6602 4.5893 17.5651 4.49369C17.4699 4.39809 17.4051 4.27655 17.3787 4.1443L16.8274 1.37115H14.4356L13.8816 4.14635C13.8552 4.27861 13.7904 4.40014 13.6952 4.49575C13.6001 4.59135 13.4789 4.65678 13.3467 4.68384C11.9762 4.96293 10.6724 5.50367 9.50673 6.27643C9.39427 6.35116 9.26223 6.39103 9.12719 6.39103C8.99215 6.39103 8.86012 6.35116 8.74765 6.27643L6.39497 4.70167L4.70262 6.39367L6.27565 8.74724C6.3504 8.85969 6.39027 8.9917 6.39027 9.12671C6.39027 9.26172 6.3504 9.39373 6.27565 9.50618C5.50273 10.6716 4.96188 11.9752 4.68274 13.3454C4.65567 13.4775 4.59023 13.5987 4.49461 13.6938C4.39898 13.7889 4.27742 13.8538 4.14514 13.8801L1.37143 14.4327V16.824L4.1472 17.3779C4.27948 17.4043 4.40104 17.4691 4.49666 17.5643C4.59229 17.6594 4.65773 17.7806 4.6848 17.9127C4.96379 19.283 5.50465 20.5865 6.27771 21.7519C6.3526 21.8644 6.39255 21.9966 6.39255 22.1317C6.39255 22.2669 6.3526 22.399 6.27771 22.5115L4.70262 24.8624L6.39428 26.5544L8.74834 24.9816C8.8608 24.9069 8.99284 24.8671 9.12788 24.8671C9.26292 24.8671 9.39495 24.9069 9.50742 24.9816C10.6732 25.7541 11.977 26.2945 13.3474 26.5736C13.4796 26.6006 13.6008 26.666 13.6959 26.7616C13.7911 26.8573 13.8559 26.9788 13.8823 27.111L14.4356 29.8849Z" fill="#888888"/>
<path d="M15.6343 23.3452C14.1073 23.3459 12.6144 22.8937 11.3445 22.046C10.0746 21.1982 9.08467 19.9929 8.5 18.5826C7.91534 17.1723 7.76219 15.6203 8.05992 14.1229C8.35765 12.6255 9.09289 11.2501 10.1726 10.1706C11.2524 9.09105 12.6281 8.35596 14.1258 8.05828C15.6234 7.76061 17.1758 7.91373 18.5864 8.49828C19.997 9.08282 21.2025 10.0725 22.0505 11.3422C22.8984 12.6119 23.3506 14.1044 23.3499 15.6311C23.3467 17.676 22.5327 19.6362 21.0865 21.0822C19.6402 22.5281 17.6796 23.3419 15.6343 23.3452ZM15.6343 9.28131C14.3788 9.28063 13.1514 9.65217 12.1071 10.349C11.0629 11.0457 10.2488 12.0365 9.76769 13.1959C9.28663 14.3552 9.16023 15.6312 9.40449 16.8624C9.64876 18.0936 10.2527 19.2248 11.14 20.1128C12.0272 21.0008 13.1579 21.6059 14.3891 21.8514C15.6203 22.097 16.8967 21.972 18.0568 21.4923C19.217 21.0125 20.2088 20.1996 20.9068 19.1564C21.6049 18.1131 21.9778 16.8863 21.9785 15.6311C21.9772 13.9487 21.3086 12.3354 20.1193 11.1452C18.93 9.95495 17.317 9.2849 15.6343 9.28199V9.28131Z" fill="#888888"/>
<path d="M38.2731 47.9902C38.1565 47.9903 38.0417 47.9606 37.9397 47.904C37.8377 47.8474 37.7519 47.7657 37.6903 47.6666L36.4985 45.747C35.5425 45.856 34.5757 45.8246 33.6288 45.6538L32.3122 47.4897C32.2201 47.6183 32.0863 47.711 31.9336 47.7523C31.7809 47.7935 31.6186 47.7807 31.4743 47.716L28.9234 46.5594C28.7789 46.4939 28.6616 46.3804 28.5915 46.2381C28.5213 46.0959 28.5027 45.9337 28.5387 45.7792L29.0516 43.5799C28.2993 42.9803 27.6386 42.274 27.0905 41.4834L24.8619 41.8509C24.7052 41.8769 24.5443 41.8477 24.4068 41.7683C24.2692 41.6889 24.1635 41.5642 24.1076 41.4156L23.1216 38.7932C23.066 38.6449 23.0635 38.4819 23.1145 38.3319C23.1655 38.1819 23.2668 38.0542 23.4014 37.9705L25.3214 36.779C25.2126 35.8232 25.244 34.8566 25.4146 33.9099L23.5796 32.5929C23.4507 32.5005 23.3577 32.3662 23.3167 32.2129C23.2757 32.0596 23.2891 31.8969 23.3547 31.7524L24.5115 29.202C24.577 29.0576 24.6906 28.9403 24.8329 28.8702C24.9752 28.8 25.1374 28.7814 25.2919 28.8174L27.4916 29.3302C28.0912 28.5779 28.7977 27.9173 29.5885 27.3695L29.221 25.1414C29.195 24.9847 29.2242 24.8239 29.3036 24.6863C29.383 24.5488 29.5077 24.4431 29.6564 24.3873L32.28 23.4014C32.4283 23.3458 32.5914 23.3433 32.7414 23.3943C32.8914 23.4453 33.0191 23.5466 33.1028 23.6811L34.2946 25.6007C35.2506 25.4918 36.2174 25.5233 37.1643 25.694L38.4781 23.858C38.5706 23.729 38.7049 23.6361 38.8582 23.5951C39.0115 23.5541 39.1743 23.5676 39.3188 23.6331L41.8697 24.7897C42.014 24.8551 42.1312 24.9686 42.2014 25.1107C42.2715 25.2528 42.2902 25.4148 42.2544 25.5692L41.7421 27.7658C42.4946 28.3652 43.1553 29.0715 43.7033 29.8623L45.9319 29.4948C46.0886 29.4688 46.2494 29.498 46.387 29.5774C46.5246 29.6568 46.6303 29.7814 46.6861 29.9301L47.6722 32.5524C47.7278 32.7008 47.7303 32.8638 47.6793 33.0138C47.6283 33.1637 47.5269 33.2914 47.3924 33.3751L45.4724 34.5667C45.5815 35.5225 45.5501 36.4891 45.3792 37.4358L47.2141 38.7528C47.3431 38.8452 47.436 38.9795 47.477 39.1328C47.5181 39.2861 47.5046 39.4488 47.439 39.5933L46.2857 42.1464C46.2202 42.2908 46.1066 42.4081 45.9643 42.4783C45.822 42.5484 45.6598 42.567 45.5053 42.531L43.3056 42.0182C42.7059 42.7704 41.9994 43.431 41.2087 43.9789L41.5762 46.207C41.6022 46.3637 41.573 46.5245 41.4936 46.6621C41.4142 46.7996 41.2895 46.9053 41.1408 46.9612L38.5179 47.947C38.4396 47.9762 38.3567 47.9908 38.2731 47.9902ZM36.8461 44.3231C36.9628 44.323 37.0776 44.3527 37.1796 44.4093C37.2815 44.4659 37.3674 44.5476 37.429 44.6467L38.5584 46.4641L40.128 45.8745L39.7796 43.763C39.7576 43.6296 39.7755 43.4928 39.831 43.3696C39.8865 43.2464 39.9772 43.1424 40.0916 43.0705C41.0204 42.489 41.8283 41.7339 42.4711 40.8465C42.5502 40.7374 42.6599 40.6539 42.7862 40.6068C42.9126 40.5596 43.0501 40.5507 43.1814 40.5812L45.2653 41.0666L45.9572 39.5405L44.2189 38.2928C44.1094 38.2141 44.0254 38.1049 43.9776 37.9788C43.9298 37.8528 43.9202 37.7154 43.9501 37.5839C44.1942 36.5159 44.2301 35.411 44.0557 34.3295C44.0343 34.1961 44.0527 34.0593 44.1087 33.9364C44.1647 33.8134 44.2558 33.7098 44.3705 33.6384L46.1883 32.5093L45.5986 30.94L43.4866 31.2882C43.3533 31.3097 43.2166 31.2916 43.0935 31.2362C42.9704 31.1807 42.8663 31.0904 42.794 30.9763C42.2124 30.0479 41.4571 29.2404 40.5696 28.5981C40.4604 28.5189 40.3769 28.4093 40.3297 28.2829C40.2825 28.1566 40.2737 28.0192 40.3042 27.8878L40.7897 25.8037L39.2633 25.1119L38.0153 26.8498C37.9366 26.9594 37.8274 27.0433 37.7013 27.0911C37.5752 27.1389 37.4378 27.1485 37.3063 27.1186C36.2387 26.8741 35.1339 26.8377 34.0525 27.0116C33.9191 27.0338 33.7821 27.0158 33.6589 26.9597C33.5358 26.9037 33.4322 26.8122 33.3613 26.697L32.2285 24.8809L30.6583 25.4711L31.0066 27.5827C31.0286 27.716 31.0108 27.8529 30.9553 27.9761C30.8998 28.0993 30.8091 28.2033 30.6946 28.2751C29.7676 28.8569 28.9613 29.6117 28.32 30.4985C28.2407 30.6078 28.131 30.6913 28.0045 30.7385C27.878 30.7857 27.7404 30.7945 27.6089 30.7638L25.5243 30.2784L24.8324 31.8045L26.5707 33.0522C26.6803 33.1309 26.7642 33.2401 26.812 33.3661C26.8599 33.4922 26.8694 33.6296 26.8395 33.7611C26.5957 34.8291 26.5599 35.934 26.7339 37.0155C26.7553 37.149 26.7368 37.2858 26.6807 37.4087C26.6246 37.5317 26.5333 37.6353 26.4185 37.7066L24.6007 38.8357L25.1904 40.405L27.3024 40.0567C27.4357 40.0347 27.5726 40.0526 27.6958 40.1081C27.819 40.1636 27.9231 40.2542 27.995 40.3687C28.5767 41.2972 29.332 42.1049 30.2194 42.7476C30.3286 42.8268 30.412 42.9364 30.4592 43.0627C30.5064 43.1891 30.5153 43.3265 30.4848 43.4579L29.9993 45.5413L31.5257 46.2331L32.7737 44.4952C32.8524 44.3855 32.9617 44.3015 33.088 44.2537C33.2142 44.2059 33.3518 44.1964 33.4834 44.2264C34.5516 44.4702 35.6567 44.5061 36.7385 44.332C36.7741 44.3261 36.8101 44.3231 36.8461 44.3231Z" fill="#888888"/>
<path d="M35.3917 41.962C34.0333 41.9621 32.7113 41.5226 31.6235 40.7091C30.5356 39.8957 29.7404 38.7521 29.3566 37.4492C28.9729 36.1464 29.0213 34.7543 29.4945 33.4813C29.9678 32.2082 30.8405 31.1225 31.9822 30.3865C33.1239 29.6505 34.4732 29.3038 35.8284 29.3982C37.1836 29.4927 38.4717 30.0231 39.5003 30.9103C40.5289 31.7974 41.2426 32.9936 41.5347 34.32C41.8268 35.6464 41.6816 37.0317 41.1209 38.2688C40.6207 39.3688 39.8146 40.3018 38.7988 40.9566C37.7831 41.6114 36.6004 41.9604 35.3917 41.962ZM35.402 30.7583C34.5184 30.757 33.6507 30.9939 32.8904 31.444C32.13 31.8941 31.5051 32.5408 31.0813 33.316C30.6575 34.0913 30.4505 34.9664 30.4822 35.8493C30.5138 36.7322 30.7829 37.5902 31.2612 38.3331C31.7394 39.076 32.4091 39.6763 33.1997 40.0708C33.9904 40.4653 34.8727 40.6395 35.754 40.5749C36.6353 40.5104 37.4829 40.2095 38.2076 39.7041C38.9323 39.1986 39.5074 38.5071 39.8722 37.7025C40.2116 36.9544 40.358 36.1333 40.2981 35.314C40.2381 34.4948 39.9738 33.7037 39.5291 33.0129C39.0845 32.3222 38.4738 31.7539 37.7528 31.3601C37.0318 30.9662 36.2236 30.7593 35.402 30.7583Z" fill="#888888"/>
</svg>
