<?xml version="1.0"?>
<svg width="48" height="48" xmlns="http://www.w3.org/2000/svg" xmlns:svg="http://www.w3.org/2000/svg">
 <g class="layer">
  <title>Layer 1</title>
  <path d="m40.27,43.26c-0.16,0 -0.31,-0.05 -0.43,-0.15l-19.6,-15.76c-0.02,-0.02 -0.03,-0.04 -0.05,-0.05l-14.46,-14.46c-2.05,-2.06 -3.81,-4.38 -5.23,-6.92c-0.42,-0.76 -0.58,-1.63 -0.46,-2.49c0.12,-0.85 0.51,-1.65 1.13,-2.26c0.61,-0.61 1.4,-1.01 2.26,-1.13c0.86,-0.12 1.73,0.04 2.49,0.46c2.53,1.41 4.86,3.17 6.92,5.23l14.46,14.46c0.01,0.02 0.03,0.03 0.05,0.05l15.76,19.6c0.1,0.13 0.16,0.3 0.15,0.47c-0.01,0.17 -0.08,0.33 -0.2,0.44l-2.31,2.31c-0.06,0.06 -0.14,0.11 -0.22,0.15c-0.08,0.03 -0.17,0.05 -0.26,0.05zm-19.14,-16.96l19.09,15.35l1.43,-1.43l-15.35,-19.09l-14.43,-14.43c-1.97,-1.97 -4.19,-3.65 -6.62,-5c-0.49,-0.28 -1.07,-0.38 -1.63,-0.3c-0.56,0.08 -1.08,0.34 -1.48,0.74c-0.4,0.4 -0.66,0.92 -0.74,1.48c-0.08,0.56 0.02,1.14 0.3,1.63c1.35,2.43 3.04,4.65 5,6.62l14.43,14.43z" fill="#888888" id="svg_1"/>
  <path d="m41.03,39.04c-0.13,0 -0.27,-0.04 -0.38,-0.11c-0.11,-0.08 -0.2,-0.18 -0.25,-0.31c-0.05,-0.12 -0.07,-0.26 -0.04,-0.39c0.03,-0.14 0.09,-0.26 0.19,-0.36l5.79,-5.79l-1.27,-1.28c-0.16,-0.16 -0.36,-0.28 -0.58,-0.34c-0.22,-0.07 -0.45,-0.08 -0.68,-0.03l-8.16,1.73c-0.18,0.03 -0.36,0 -0.52,-0.1c-0.15,-0.1 -0.25,-0.26 -0.29,-0.43c-0.04,-0.18 -0.01,-0.37 0.09,-0.52c0.1,-0.15 0.26,-0.26 0.44,-0.3l8.16,-1.72c0.45,-0.09 0.91,-0.07 1.35,0.06c0.44,0.13 0.83,0.36 1.16,0.68l1.76,1.76c0.13,0.13 0.2,0.31 0.2,0.49c0,0.18 -0.07,0.35 -0.2,0.48l-6.28,6.28c-0.07,0.07 -0.14,0.12 -0.22,0.15c-0.09,0.04 -0.18,0.05 -0.27,0.05z" fill="#888888" id="svg_2"/>
  <path d="m32.08,48c-0.18,0 -0.36,-0.07 -0.49,-0.2l-1.76,-1.76c-0.32,-0.33 -0.55,-0.72 -0.68,-1.16c-0.13,-0.44 -0.15,-0.9 -0.06,-1.35l1.72,-8.16c0.04,-0.18 0.15,-0.33 0.3,-0.43c0.15,-0.1 0.34,-0.14 0.52,-0.1c0.17,0.04 0.33,0.15 0.43,0.3c0.1,0.15 0.13,0.34 0.1,0.51l-1.73,8.17c-0.05,0.22 -0.04,0.45 0.03,0.67c0.06,0.22 0.18,0.42 0.34,0.58l1.28,1.28l5.79,-5.8c0.13,-0.12 0.31,-0.19 0.49,-0.19c0.18,0 0.35,0.07 0.48,0.2c0.12,0.13 0.19,0.3 0.2,0.48c0,0.18 -0.07,0.35 -0.2,0.48l-6.28,6.28c-0.13,0.13 -0.3,0.2 -0.48,0.2z" fill="#888888" id="svg_3"/>
  <path d="m43.73,44.41c-0.19,0 -0.36,-0.07 -0.49,-0.2l-8.75,-8.75c-0.12,-0.13 -0.19,-0.31 -0.19,-0.49c0,-0.18 0.07,-0.35 0.2,-0.48c0.13,-0.12 0.3,-0.19 0.48,-0.2c0.18,0 0.35,0.07 0.48,0.2l8.75,8.75c0.1,0.1 0.16,0.22 0.19,0.35c0.02,0.13 0.01,0.27 -0.04,0.4c-0.05,0.12 -0.14,0.23 -0.25,0.31c-0.12,0.07 -0.25,0.11 -0.38,0.11z" fill="#888888" id="svg_4"/>
  <path d="m27.15,21.77c-0.15,0 -0.3,-0.04 -0.41,-0.13c-0.12,-0.09 -0.21,-0.22 -0.25,-0.36c-0.04,-0.14 -0.04,-0.29 0.01,-0.43c0.05,-0.14 0.15,-0.26 0.27,-0.34l15.87,-10.32l-3.56,-3.56c-0.25,-0.25 -0.55,-0.41 -0.89,-0.49c-0.33,-0.07 -0.68,-0.05 -1,0.07l-18.51,6.74c-0.17,0.06 -0.36,0.05 -0.52,-0.02c-0.16,-0.08 -0.29,-0.22 -0.35,-0.39c-0.07,-0.17 -0.06,-0.36 0.02,-0.52c0.07,-0.17 0.21,-0.29 0.38,-0.36l18.5,-6.74c0.57,-0.21 1.19,-0.25 1.78,-0.12c0.59,0.13 1.13,0.43 1.55,0.85l4.17,4.17c0.07,0.07 0.13,0.16 0.16,0.26c0.03,0.09 0.05,0.19 0.04,0.3c-0.01,0.1 -0.05,0.2 -0.1,0.28c-0.05,0.09 -0.13,0.16 -0.21,0.22l-16.58,10.78c-0.11,0.07 -0.24,0.11 -0.37,0.11z" fill="#888888" id="svg_5"/>
  <path d="m21.73,11.8c-0.18,0 -0.36,-0.07 -0.48,-0.2l-1.48,-1.48c-0.13,-0.12 -0.23,-0.27 -0.3,-0.44c-0.07,-0.17 -0.11,-0.35 -0.11,-0.53c0,-0.18 0.04,-0.35 0.11,-0.52c0.07,-0.17 0.17,-0.32 0.3,-0.45l1.39,-1.39c0.26,-0.25 0.61,-0.39 0.97,-0.39c0.36,0 0.71,0.14 0.97,0.39l2.58,2.58c0.13,0.13 0.19,0.3 0.19,0.48c0,0.18 -0.07,0.35 -0.2,0.48c-0.13,0.12 -0.3,0.2 -0.48,0.2c-0.18,0 -0.35,-0.07 -0.48,-0.19l-2.58,-2.58l-1.39,1.39l1.48,1.48c0.09,0.1 0.16,0.22 0.18,0.35c0.03,0.14 0.02,0.28 -0.04,0.4c-0.05,0.13 -0.13,0.23 -0.25,0.31c-0.11,0.07 -0.24,0.11 -0.38,0.11l0,0z" fill="#888888" id="svg_6"/>
  <path d="m10.31,44.41c-0.19,0 -0.36,-0.07 -0.49,-0.2l-4.16,-4.16c-0.43,-0.43 -0.73,-0.97 -0.86,-1.56c-0.13,-0.59 -0.09,-1.21 0.12,-1.77l6.74,-18.51c0.07,-0.17 0.2,-0.31 0.36,-0.38c0.16,-0.08 0.35,-0.09 0.52,-0.02c0.17,0.06 0.31,0.19 0.39,0.35c0.08,0.16 0.08,0.35 0.02,0.52l-6.74,18.5c-0.12,0.33 -0.14,0.68 -0.07,1.01c0.08,0.34 0.24,0.64 0.49,0.89l3.56,3.56l10.32,-15.87c0.05,-0.08 0.12,-0.14 0.19,-0.19c0.07,-0.06 0.16,-0.09 0.25,-0.11c0.09,-0.02 0.18,-0.02 0.27,-0.01c0.09,0.02 0.17,0.05 0.25,0.1c0.07,0.05 0.14,0.12 0.19,0.19c0.05,0.08 0.09,0.16 0.11,0.25c0.01,0.09 0.01,0.18 0,0.27c-0.02,0.09 -0.06,0.17 -0.11,0.25l-10.78,16.58c-0.06,0.08 -0.13,0.16 -0.22,0.21c-0.08,0.05 -0.18,0.09 -0.28,0.1c-0.03,0 -0.05,0 -0.07,0z" fill="#888888" id="svg_7"/>
  <path d="m9.85,25.88c-0.18,0 -0.36,-0.07 -0.48,-0.2l-2.58,-2.58c-0.26,-0.26 -0.4,-0.6 -0.4,-0.97c0,-0.36 0.14,-0.71 0.4,-0.97l1.39,-1.39c0.27,-0.25 0.61,-0.39 0.97,-0.39c0.37,0 0.71,0.14 0.97,0.39l1.48,1.47c0.13,0.13 0.2,0.31 0.21,0.49c0,0.18 -0.08,0.36 -0.21,0.49c-0.12,0.12 -0.3,0.2 -0.48,0.2c-0.18,0 -0.36,-0.07 -0.49,-0.2l-1.48,-1.48l-1.39,1.39l2.57,2.58c0.1,0.1 0.17,0.22 0.19,0.35c0.03,0.14 0.02,0.27 -0.04,0.4c-0.05,0.12 -0.14,0.23 -0.25,0.31c-0.11,0.07 -0.24,0.11 -0.38,0.11z" fill="#888888" id="svg_8"/>
 </g>
</svg>