<?xml version="1.0"?>
<svg width="48" height="35" xmlns="http://www.w3.org/2000/svg" xmlns:svg="http://www.w3.org/2000/svg">
 <g class="layer">
  <title>Layer 1</title>
  <path d="m31.54,28.79l-16.5,0c-0.18,0 -0.35,-0.07 -0.48,-0.2c-0.13,-0.13 -0.2,-0.3 -0.2,-0.48c0,-0.18 0.07,-0.36 0.2,-0.49c0.13,-0.12 0.3,-0.2 0.48,-0.2l15.82,0l0,-26.05l-29.49,0l0,26.05l4.18,0c0.19,0 0.36,0.08 0.49,0.2c0.13,0.13 0.2,0.31 0.2,0.49c0,0.18 -0.07,0.35 -0.2,0.48c-0.13,0.13 -0.3,0.2 -0.49,0.2l-4.18,0c-0.36,0 -0.71,-0.14 -0.97,-0.4c-0.26,-0.25 -0.4,-0.6 -0.4,-0.97l0,-26.05c0,-0.36 0.14,-0.71 0.4,-0.97c0.26,-0.26 0.61,-0.4 0.97,-0.4l29.49,0c0.36,0 0.71,0.14 0.97,0.4c0.25,0.26 0.4,0.61 0.4,0.97l0,26.74c0,0.18 -0.07,0.35 -0.2,0.48c-0.13,0.13 -0.31,0.2 -0.49,0.2z" fill="#E12126" id="svg_1"/>
  <path d="m47.31,28.79l-2.79,0c-0.19,0 -0.36,-0.07 -0.49,-0.2c-0.13,-0.13 -0.2,-0.3 -0.2,-0.48c0,-0.18 0.07,-0.36 0.2,-0.49c0.13,-0.12 0.3,-0.2 0.49,-0.2l2.11,0l0,-12.5l-5.97,-7.38l-8.43,0l0,19.88l2.8,0c0.18,0 0.35,0.08 0.48,0.2c0.13,0.13 0.2,0.31 0.2,0.49c0,0.18 -0.07,0.35 -0.2,0.48c-0.13,0.13 -0.3,0.2 -0.48,0.2l-3.49,0c-0.18,0 -0.35,-0.07 -0.48,-0.2c-0.13,-0.13 -0.2,-0.3 -0.2,-0.48l0,-21.25c0,-0.19 0.07,-0.36 0.2,-0.49c0.13,-0.13 0.3,-0.2 0.48,-0.2l9.45,0c0.1,0 0.21,0.02 0.3,0.07c0.09,0.04 0.17,0.11 0.24,0.19l6.32,7.82c0.1,0.12 0.15,0.27 0.15,0.43l0,13.43c0,0.18 -0.07,0.35 -0.2,0.48c-0.13,0.13 -0.3,0.2 -0.49,0.2z" fill="#E12126" id="svg_2"/>
  <path d="m43.54,18.51l-8.91,0c-0.18,0 -0.36,-0.07 -0.49,-0.2c-0.12,-0.13 -0.2,-0.3 -0.2,-0.49l0,-7.54c0,-0.18 0.08,-0.35 0.2,-0.48c0.13,-0.13 0.31,-0.2 0.49,-0.2l4.38,0c0.1,0 0.21,0.02 0.3,0.07c0.09,0.04 0.17,0.1 0.24,0.18l4.53,5.61c0.09,0.12 0.15,0.27 0.15,0.43l0,1.93c0,0.19 -0.07,0.36 -0.2,0.49c-0.13,0.13 -0.31,0.2 -0.49,0.2zm-8.23,-1.37l7.55,0l0,-1.01l-4.18,-5.16l-3.37,0l0,6.17z" fill="#E12126" id="svg_3"/>
  <path d="m10.3,34.28c-1.08,0 -2.15,-0.32 -3.05,-0.93c-0.9,-0.6 -1.6,-1.45 -2.02,-2.46c-0.41,-1 -0.52,-2.1 -0.31,-3.17c0.21,-1.06 0.73,-2.04 1.5,-2.8c0.77,-0.77 1.75,-1.29 2.81,-1.51c1.06,-0.21 2.17,-0.1 3.17,0.32c1,0.41 1.86,1.12 2.46,2.02c0.6,0.9 0.93,1.96 0.93,3.04c-0.01,1.46 -0.58,2.85 -1.61,3.88c-1.03,1.03 -2.43,1.61 -3.88,1.61zm0,-9.6c-0.81,0 -1.61,0.24 -2.29,0.69c-0.67,0.46 -1.2,1.1 -1.51,1.85c-0.31,0.75 -0.39,1.58 -0.24,2.38c0.16,0.79 0.56,1.53 1.13,2.1c0.58,0.58 1.31,0.97 2.11,1.13c0.8,0.16 1.62,0.08 2.37,-0.24c0.76,-0.31 1.4,-0.83 1.85,-1.51c0.45,-0.68 0.69,-1.47 0.69,-2.29c0,-1.09 -0.43,-2.13 -1.2,-2.9c-0.77,-0.77 -1.82,-1.21 -2.91,-1.21z" fill="#E12126" id="svg_4"/>
  <path d="m39.77,34.28c-1.08,0 -2.14,-0.32 -3.05,-0.93c-0.9,-0.6 -1.6,-1.45 -2.02,-2.46c-0.41,-1 -0.52,-2.1 -0.31,-3.17c0.21,-1.06 0.74,-2.04 1.5,-2.8c0.77,-0.77 1.75,-1.29 2.81,-1.51c1.07,-0.21 2.17,-0.1 3.17,0.32c1,0.41 1.86,1.12 2.46,2.02c0.61,0.9 0.93,1.96 0.93,3.04c0,1.46 -0.58,2.85 -1.61,3.88c-1.03,1.03 -2.42,1.61 -3.88,1.61zm0,-9.6c-0.81,0 -1.61,0.24 -2.28,0.69c-0.68,0.46 -1.21,1.1 -1.52,1.85c-0.31,0.75 -0.39,1.58 -0.23,2.38c0.15,0.79 0.55,1.53 1.12,2.1c0.58,0.58 1.31,0.97 2.11,1.13c0.8,0.16 1.62,0.08 2.38,-0.24c0.75,-0.31 1.39,-0.83 1.84,-1.51c0.45,-0.68 0.7,-1.47 0.7,-2.29c-0.01,-1.09 -0.44,-2.13 -1.21,-2.9c-0.77,-0.77 -1.82,-1.21 -2.91,-1.21z" fill="#E12126" id="svg_5"/>
  <path d="m39.77,31.54c-0.54,0 -1.07,-0.16 -1.52,-0.47c-0.45,-0.3 -0.8,-0.73 -1.01,-1.23c-0.21,-0.5 -0.26,-1.05 -0.16,-1.58c0.11,-0.53 0.37,-1.02 0.75,-1.4c0.39,-0.39 0.87,-0.65 1.41,-0.76c0.53,-0.1 1.08,-0.05 1.58,0.16c0.5,0.21 0.93,0.56 1.23,1.01c0.3,0.45 0.46,0.98 0.46,1.52c0,0.73 -0.28,1.43 -0.8,1.94c-0.51,0.52 -1.21,0.81 -1.94,0.81zm0,-4.12c-0.27,0 -0.54,0.08 -0.76,0.23c-0.23,0.15 -0.4,0.37 -0.51,0.62c-0.1,0.25 -0.13,0.53 -0.07,0.79c0.05,0.27 0.18,0.51 0.37,0.7c0.19,0.2 0.44,0.33 0.7,0.38c0.27,0.05 0.55,0.02 0.8,-0.08c0.25,-0.1 0.46,-0.28 0.61,-0.5c0.15,-0.23 0.23,-0.49 0.23,-0.77c0,-0.36 -0.14,-0.71 -0.4,-0.97c-0.26,-0.25 -0.6,-0.4 -0.97,-0.4z" fill="#E12126" id="svg_6"/>
  <path d="m10.3,31.54c-0.54,0 -1.07,-0.16 -1.52,-0.47c-0.45,-0.3 -0.81,-0.73 -1.01,-1.23c-0.21,-0.5 -0.27,-1.05 -0.16,-1.58c0.11,-0.53 0.37,-1.02 0.75,-1.4c0.38,-0.39 0.87,-0.65 1.41,-0.76c0.53,-0.1 1.08,-0.05 1.58,0.16c0.5,0.21 0.93,0.56 1.23,1.01c0.3,0.45 0.46,0.98 0.46,1.52c0,0.73 -0.29,1.43 -0.8,1.94c-0.51,0.52 -1.21,0.81 -1.94,0.81zm0,-4.12c-0.27,0 -0.54,0.08 -0.76,0.23c-0.23,0.15 -0.4,0.37 -0.51,0.62c-0.1,0.25 -0.13,0.53 -0.07,0.79c0.05,0.27 0.18,0.51 0.37,0.7c0.19,0.2 0.44,0.33 0.7,0.38c0.27,0.05 0.54,0.02 0.79,-0.08c0.26,-0.1 0.47,-0.28 0.62,-0.5c0.15,-0.23 0.23,-0.49 0.23,-0.77c0,-0.36 -0.14,-0.71 -0.4,-0.97c-0.26,-0.25 -0.61,-0.4 -0.97,-0.4z" fill="#E12126" id="svg_7"/>
  <path d="m31.54,21.25l-30.85,0c-0.19,0 -0.36,-0.07 -0.49,-0.2c-0.13,-0.13 -0.2,-0.3 -0.2,-0.48c0,-0.18 0.07,-0.36 0.2,-0.49c0.13,-0.13 0.3,-0.2 0.49,-0.2l30.85,0c0.18,0 0.36,0.07 0.49,0.2c0.13,0.13 0.2,0.31 0.2,0.49c0,0.18 -0.07,0.35 -0.2,0.48c-0.13,0.13 -0.31,0.2 -0.49,0.2z" fill="#E12126" id="svg_8"/>
 </g>
</svg>