<svg width="48" height="35" viewBox="0 0 48 35" fill="none" xmlns="http://www.w3.org/2000/svg">
<path d="M31.5429 28.7942H15.0446C14.8627 28.7942 14.6883 28.722 14.5597 28.5934C14.4311 28.4648 14.3589 28.2905 14.3589 28.1086C14.3589 27.9268 14.4311 27.7524 14.5597 27.6239C14.6883 27.4953 14.8627 27.4231 15.0446 27.4231H30.8571L30.8571 1.37115L1.37143 1.37115L1.37143 27.4231H5.55429C5.73615 27.4231 5.91056 27.4953 6.03916 27.6239C6.16776 27.7524 6.24 27.9268 6.24 28.1086C6.24 28.2905 6.16776 28.4648 6.03916 28.5934C5.91056 28.722 5.73615 28.7942 5.55429 28.7942H1.37143C1.0077 28.7942 0.658875 28.6497 0.401682 28.3926C0.144489 28.1355 0 27.7867 0 27.4231L0 1.37115C0 1.0075 0.144489 0.658742 0.401682 0.401602C0.658875 0.144461 1.0077 0 1.37143 0L30.8571 0C31.2209 0 31.5697 0.144461 31.8269 0.401602C32.0841 0.658742 32.2286 1.0075 32.2286 1.37115L32.2286 28.1086C32.2286 28.2905 32.1563 28.4648 32.0277 28.5934C31.8991 28.722 31.7247 28.7942 31.5429 28.7942Z" fill="#888888"/>
<path d="M47.3143 28.7942H44.5166C44.3347 28.7942 44.1603 28.722 44.0317 28.5934C43.9031 28.4648 43.8309 28.2905 43.8309 28.1086C43.8309 27.9268 43.9031 27.7524 44.0317 27.6239C44.1603 27.4953 44.3347 27.423 44.5166 27.423H46.6286L46.6286 14.9209L40.6629 7.54134L32.2286 7.54134L32.2286 27.423L35.0263 27.423C35.2081 27.423 35.3826 27.4953 35.5112 27.6239C35.6398 27.7524 35.712 27.9268 35.712 28.1086C35.712 28.2905 35.6398 28.4648 35.5112 28.5934C35.3826 28.722 35.2081 28.7942 35.0263 28.7942L31.5429 28.7942C31.361 28.7942 31.1866 28.722 31.058 28.5934C30.9294 28.4648 30.8571 28.2905 30.8571 28.1086L30.8571 6.85576C30.8571 6.67394 30.9294 6.49956 31.058 6.37099C31.1866 6.24241 31.361 6.17019 31.5429 6.17019L40.992 6.17019C41.0943 6.17021 41.1953 6.19312 41.2877 6.23725C41.38 6.28138 41.4612 6.34561 41.5255 6.42522L47.8478 14.2476C47.9462 14.3696 48 14.5215 48 14.6782L48 28.1086C48 28.2905 47.9278 28.4648 47.7992 28.5934C47.6706 28.722 47.4961 28.7942 47.3143 28.7942Z" fill="#888888"/>
<path d="M43.5428 18.5105H34.6286C34.4467 18.5105 34.2723 18.4383 34.1437 18.3097C34.0151 18.1812 33.9428 18.0068 33.9428 17.825V10.2836C33.9428 10.1018 34.0151 9.92743 34.1437 9.79886C34.2723 9.67029 34.4467 9.59806 34.6286 9.59806L39.0116 9.59806C39.114 9.59808 39.215 9.62099 39.3073 9.66512C39.3996 9.70925 39.4809 9.77348 39.5451 9.85309L44.0763 15.459C44.1749 15.5811 44.2287 15.7334 44.2286 15.8903V17.825C44.2286 18.0068 44.1563 18.1812 44.0277 18.3097C43.8991 18.4383 43.7247 18.5105 43.5428 18.5105ZM35.3143 17.1394H42.8571V16.1323L38.6846 10.9692L35.3143 10.9692V17.1394Z" fill="#888888"/>
<path d="M10.3001 34.2788C9.21514 34.2788 8.15453 33.9571 7.25241 33.3545C6.35029 32.7518 5.64717 31.8952 5.23197 30.8931C4.81677 29.8909 4.70813 28.7881 4.9198 27.7242C5.13147 26.6603 5.65393 25.683 6.42112 24.916C7.18831 24.149 8.16577 23.6266 9.2299 23.415C10.294 23.2033 11.397 23.312 12.3994 23.7271C13.4018 24.1422 14.2585 24.8452 14.8613 25.7471C15.4641 26.6491 15.7858 27.7094 15.7858 28.7942C15.7842 30.2483 15.2057 31.6424 14.1773 32.6706C13.1489 33.6988 11.7545 34.2772 10.3001 34.2788ZM10.3001 24.6807C9.48638 24.6807 8.69092 24.922 8.01433 25.374C7.33774 25.826 6.8104 26.4684 6.499 27.22C6.1876 27.9717 6.10613 28.7988 6.26488 29.5967C6.42363 30.3946 6.81547 31.1276 7.39087 31.7029C7.96626 32.2781 8.69936 32.6699 9.49745 32.8286C10.2955 32.9873 11.1228 32.9059 11.8746 32.5945C12.6264 32.2832 13.2689 31.756 13.721 31.0795C14.1731 30.4031 14.4144 29.6078 14.4144 28.7942C14.4131 27.7036 13.9792 26.6581 13.2079 25.8869C12.4366 25.1158 11.3909 24.682 10.3001 24.6807Z" fill="#888888"/>
<path d="M39.7714 34.2788C38.6864 34.2788 37.6258 33.9571 36.7237 33.3545C35.8216 32.7518 35.1185 31.8952 34.7033 30.8931C34.2881 29.8909 34.1794 28.7881 34.3911 27.7242C34.6028 26.6603 35.1252 25.683 35.8924 24.916C36.6596 24.149 37.6371 23.6266 38.7012 23.415C39.7653 23.2033 40.8683 23.312 41.8707 23.7271C42.8731 24.1422 43.7298 24.8452 44.3326 25.7471C44.9354 26.6491 45.2571 27.7094 45.2571 28.7942C45.2555 30.2483 44.677 31.6424 43.6486 32.6706C42.6202 33.6988 41.2258 34.2772 39.7714 34.2788ZM39.7714 24.6807C38.9577 24.6807 38.1622 24.922 37.4856 25.374C36.8091 25.826 36.2817 26.4684 35.9703 27.22C35.6589 27.9717 35.5774 28.7988 35.7362 29.5967C35.8949 30.3946 36.2868 31.1276 36.8622 31.7029C37.4376 32.2781 38.1707 32.6699 38.9688 32.8286C39.7669 32.9873 40.5941 32.9059 41.3459 32.5945C42.0977 32.2832 42.7402 31.756 43.1923 31.0795C43.6444 30.4031 43.8857 29.6078 43.8857 28.7942C43.8846 27.7036 43.4508 26.6579 42.6795 25.8867C41.9081 25.1156 40.8623 24.6818 39.7714 24.6807Z" fill="#888888"/>
<path d="M39.7714 31.5365C39.2289 31.5365 38.6986 31.3757 38.2476 31.0743C37.7965 30.773 37.445 30.3447 37.2374 29.8436C37.0298 29.3425 36.9754 28.7911 37.0813 28.2592C37.1871 27.7272 37.4483 27.2386 37.8319 26.8551C38.2155 26.4716 38.7043 26.2104 39.2363 26.1046C39.7684 25.9988 40.3199 26.0531 40.8211 26.2606C41.3223 26.4682 41.7506 26.8197 42.052 27.2706C42.3534 27.7216 42.5143 28.2518 42.5143 28.7942C42.5143 29.5215 42.2253 30.219 41.7109 30.7333C41.1965 31.2476 40.4989 31.5365 39.7714 31.5365ZM39.7714 27.423C39.5002 27.423 39.235 27.5034 39.0095 27.6541C38.784 27.8048 38.6082 28.0189 38.5044 28.2695C38.4006 28.52 38.3734 28.7957 38.4263 29.0617C38.4793 29.3277 38.6099 29.572 38.8017 29.7637C38.9935 29.9555 39.2378 30.0861 39.5039 30.139C39.7699 30.1919 40.0457 30.1647 40.2962 30.061C40.5468 29.9572 40.761 29.7814 40.9117 29.556C41.0624 29.3305 41.1429 29.0654 41.1429 28.7942C41.1429 28.4305 40.9984 28.0818 40.7412 27.8246C40.484 27.5675 40.1352 27.423 39.7714 27.423Z" fill="#888888"/>
<path d="M10.3001 31.5365C9.75763 31.5365 9.22733 31.3757 8.77627 31.0743C8.32521 30.773 7.97365 30.3447 7.76605 29.8436C7.55845 29.3425 7.50413 28.7911 7.60996 28.2592C7.7158 27.7272 7.97703 27.2386 8.36062 26.8551C8.74422 26.4716 9.23295 26.2104 9.76501 26.1046C10.2971 25.9988 10.8486 26.0531 11.3498 26.2606C11.851 26.4682 12.2793 26.8197 12.5807 27.2706C12.8821 27.7216 13.043 28.2518 13.043 28.7942C13.043 29.5215 12.754 30.219 12.2396 30.7333C11.7252 31.2476 11.0276 31.5365 10.3001 31.5365ZM10.3001 27.423C10.0289 27.423 9.76372 27.5034 9.53819 27.6541C9.31266 27.8048 9.13688 28.0189 9.03308 28.2695C8.92928 28.52 8.90212 28.7957 8.95504 29.0617C9.00796 29.3277 9.13857 29.572 9.33037 29.7637C9.52217 29.9555 9.76653 30.0861 10.0326 30.139C10.2986 30.1919 10.5743 30.1647 10.8249 30.061C11.0755 29.9572 11.2897 29.7814 11.4404 29.556C11.5911 29.3305 11.6715 29.0654 11.6715 28.7942C11.6715 28.4305 11.5271 28.0818 11.2699 27.8246C11.0127 27.5675 10.6638 27.423 10.3001 27.423Z" fill="#888888"/>
<path d="M31.5429 21.2529L0.685714 21.2529C0.503852 21.2529 0.329437 21.1806 0.200841 21.0521C0.0722447 20.9235 0 20.7491 0 20.5673C0 20.3855 0.0722447 20.2111 0.200841 20.0825C0.329437 19.9539 0.503852 19.8817 0.685714 19.8817L31.5429 19.8817C31.7247 19.8817 31.8991 19.9539 32.0277 20.0825C32.1563 20.2111 32.2286 20.3855 32.2286 20.5673C32.2286 20.7491 32.1563 20.9235 32.0277 21.0521C31.8991 21.1806 31.7247 21.2529 31.5429 21.2529Z" fill="#888888"/>
</svg>
